<svg aria-hidden="true" xmlns="http://www.w3.org/2000/svg" viewBox="560 280 100 100"><defs><linearGradient x1="0.4999999701976776" y1="1.4901161193847656e-8" x2="0.9999999403953552" y2="0.9999999999999999" id="master_svg18_0_15"><stop offset="0%" stop-color="#FFEBEE" stop-opacity="1"/><stop offset="100%" stop-color="#FFC5C8" stop-opacity="1"/></linearGradient><clipPath id="master_svg19_0_98"><rect x="585" y="305" width="50" height="50" rx="0"/></clipPath><linearGradient x1="0.5" y1="-3.0616171314629196e-17" x2="0.5" y2="1" id="master_svg1a_0_13"><stop offset="0%" stop-color="#FF4040" stop-opacity="1"/><stop offset="100%" stop-color="#FF9097" stop-opacity="1"/></linearGradient></defs><rect x="560" y="280" width="100" height="100" rx="20" fill="url(#master_svg18_0_15)" fill-opacity="1"/><g clip-path="url(#master_svg19_0_98)"><path d="M621.4583316228487,308.9937496185303C619.1123956228487,309.0302390605303,616.8176226228487,309.6851105085303,614.8057556228487,310.8922311185303C612.7938876228487,312.09935161853025,611.1361676228487,313.81597661853027,609.9999996228487,315.8687496185303C608.8638326228487,313.81597661853027,607.2061116228487,312.09935161853025,605.1942436228487,310.8922311185303C603.1823766228487,309.6851105085303,600.8876046228487,309.0302390605303,598.5416666228487,308.9937496185303C594.8019597228487,309.1562302685303,591.2785536228487,310.7921959185303,588.7412135228487,313.5442343185303C586.2038733228487,316.29627231853027,584.8588522928487,319.9406776185303,584.9999992548487,323.68125061853027C584.9999992548487,333.15416761853027,594.9708325228487,343.5000016185303,603.3333336228487,350.5145856185303C605.2004546228487,352.0836046185303,607.5611546228487,352.9438036185303,609.9999996228487,352.9438036185303C612.4388446228487,352.9438036185303,614.7995446228487,352.0836046185303,616.6666656228487,350.5145856185303C625.0291666228487,343.5000016185303,634.9999996228487,333.15416761853027,634.9999996228487,323.68125061853027C635.1411476228487,319.9406776185303,633.7961266228486,316.29627231853027,631.2587886228487,313.5442343185303C628.7214466228487,310.7921959185303,625.1980396228487,309.1562302685303,621.4583316228487,308.9937496185303Z" fill="url(#master_svg1a_0_13)" fill-opacity="1"/></g></svg>